<?xml version="1.0" standalone="no"?>
<!DOCTYPE svg PUBLIC "-//W3C//DTD SVG 20010904//EN"
 "http://www.w3.org/TR/2001/REC-SVG-20010904/DTD/svg10.dtd">
<svg version="1.0" xmlns="http://www.w3.org/2000/svg"
 width="400.000000pt" height="400.000000pt" viewBox="0 0 400.000000 400.000000"
 preserveAspectRatio="xMidYMid meet">
<metadata>
Created by potrace 1.14, written by Peter Selinger 2001-2017
</metadata>
<g transform="translate(0.000000,400.000000) scale(0.100000,-0.100000)"
fill="#000000" stroke="none">
<path d="M799 3487 c-20 -13 -39 -37 -46 -57 -8 -26 -10 -247 -6 -845 6 -887
3 -847 66 -886 31 -19 51 -19 720 -17 l689 3 34 37 34 38 0 820 c0 891 2 864
-55 908 l-28 22 -687 0 -687 0 -34 -23z m1291 -227 c27 -27 25 -56 -5 -86
l-25 -25 -541 3 c-522 3 -541 4 -555 22 -19 26 -18 65 3 88 15 17 46 18 560
18 530 0 543 0 563 -20z m-8 -377 c24 -21 23 -68 -2 -93 -20 -20 -33 -20 -555
-20 l-536 0 -24 25 c-30 29 -32 58 -5 85 20 20 33 20 562 20 490 0 543 -2 560
-17z m-52 -341 c132 -44 154 -65 129 -118 -17 -36 -59 -43 -127 -20 -25 9 -49
16 -54 16 -4 0 -8 -90 -8 -199 0 -117 -4 -211 -11 -228 -24 -64 -109 -122
-180 -123 -56 0 -135 45 -164 94 -29 49 -34 126 -11 179 29 70 122 124 197
114 l39 -5 0 138 c0 124 2 140 21 164 11 14 28 26 38 26 9 0 68 -17 131 -38z
m-406 -43 c30 -24 34 -63 9 -91 -15 -17 -39 -18 -339 -18 l-324 0 -16 26 c-13
19 -15 32 -8 52 17 49 36 52 355 52 285 0 297 -1 323 -21z m-256 -385 c27 -18
30 -69 5 -96 -14 -16 -35 -18 -205 -18 -175 0 -189 1 -208 20 -26 26 -25 51 1
84 l20 26 183 0 c148 0 186 -3 204 -16z"/>
<path d="M2360 2122 c0 -360 -3 -388 -42 -445 -41 -58 -58 -62 -358 -67 l-275
-5 0 -440 c0 -439 0 -440 23 -487 13 -26 41 -63 64 -83 81 -73 46 -70 703 -70
580 0 591 0 636 21 55 26 108 77 135 130 18 37 19 69 22 668 l2 630 -245 245
-245 246 -210 3 -210 3 0 -349z m568 -180 c-181 -4 -188 3 -188 191 l0 122
155 -155 155 -155 -122 -3z m-265 -369 c123 -58 206 -170 229 -307 29 -173
-66 -353 -227 -432 -56 -27 -68 -29 -175 -29 -106 0 -120 2 -172 28 -31 15
-79 48 -106 72 -40 36 -57 45 -86 45 -23 0 -43 7 -56 20 -19 19 -20 33 -20
233 0 116 4 217 8 223 12 18 49 34 77 34 17 0 44 15 73 41 93 81 173 110 297
106 77 -2 100 -7 158 -34z"/>
<path d="M2425 1543 c-37 -7 -97 -33 -133 -58 l-37 -25 103 0 102 0 0 39 c0
43 -5 49 -35 44z"/>
<path d="M2520 1505 c0 -38 4 -46 28 -57 26 -13 27 -15 30 -111 l3 -97 126 0
126 0 -7 32 c-26 128 -148 250 -273 272 l-33 6 0 -45z"/>
<path d="M2252 1322 c-9 -6 -12 -38 -10 -123 l3 -114 25 0 c20 0 26 6 28 26 3
22 9 28 41 33 83 13 113 104 52 158 -25 22 -41 28 -79 28 -26 0 -53 -4 -60 -8z
m92 -58 c9 -3 16 -16 16 -29 0 -22 -17 -35 -46 -35 -9 0 -14 11 -14 35 0 36
10 42 44 29z"/>
<path d="M2580 1075 l0 -96 -30 -17 c-26 -15 -30 -23 -30 -60 l0 -44 33 7
c133 28 250 142 272 268 l7 37 -126 0 -126 0 0 -95z"/>
<path d="M2275 934 c28 -22 113 -61 153 -69 l32 -7 0 46 0 46 -102 0 c-96 -1
-102 -2 -83 -16z"/>
</g>
</svg>
